<?xml version="1.0" encoding="us-ascii" standalone="no"?><svg xmlns="http://www.w3.org/2000/svg" xmlns:xlink="http://www.w3.org/1999/xlink" contentStyleType="text/css" height="550.5px" preserveAspectRatio="none" style="width:1780px;height:550px;background:#FFFFFF;" version="1.1" viewBox="0 0 1780 550" width="1780.5px" zoomAndPan="magnify"><defs/><g><rect fill="#F1F1F1" height="60" rx="18.75" ry="18.75" style="stroke:#181818;stroke-width:0.75;" width="108" x="1579.59" y="130.5"/><text fill="#000000" font-family="sans-serif" font-size="21" lengthAdjust="spacing" textLength="93" x="1587.09" y="168.4365">Blackjack</text><rect fill="#F1F1F1" height="60" rx="18.75" ry="18.75" style="stroke:#181818;stroke-width:0.75;" width="75" x="694.59" y="130.5"/><text fill="#000000" font-family="sans-serif" font-size="21" lengthAdjust="spacing" textLength="43.5" x="710.34" y="168.4365">&lt;21</text><rect fill="#F1F1F1" height="60" rx="18.75" ry="18.75" style="stroke:#181818;stroke-width:0.75;" width="75" x="211.59" y="306"/><text fill="#000000" font-family="sans-serif" font-size="21" lengthAdjust="spacing" textLength="43.5" x="227.34" y="343.9365">Bust</text><rect fill="#F1F1F1" height="60" rx="18.75" ry="18.75" style="stroke:#181818;stroke-width:0.75;" width="75" x="1260.09" y="481.5"/><text fill="#000000" font-family="sans-serif" font-size="21" lengthAdjust="spacing" textLength="37.5" x="1278.84" y="519.4365">Win</text><rect fill="#F1F1F1" height="60" rx="18.75" ry="18.75" style="stroke:#181818;stroke-width:0.75;" width="75" x="406.59" y="306"/><text fill="#000000" font-family="sans-serif" font-size="21" lengthAdjust="spacing" textLength="46.5" x="420.84" y="343.9365">Lose</text><rect fill="#F1F1F1" height="60" rx="18.75" ry="18.75" style="stroke:#181818;stroke-width:0.75;" width="75" x="724.59" y="481.5"/><text fill="#000000" font-family="sans-serif" font-size="21" lengthAdjust="spacing" textLength="49.5" x="737.34" y="519.4365">Push</text><rect fill="#F1F1F1" height="60" rx="18.75" ry="18.75" style="stroke:#181818;stroke-width:0.75;" width="97.5" x="870.84" y="306"/><text fill="#000000" font-family="sans-serif" font-size="21" lengthAdjust="spacing" textLength="82.5" x="878.34" y="343.9365">Has Pair</text><ellipse cx="1167.09" cy="24" fill="#222222" rx="15" ry="15" style="stroke:#222222;stroke-width:1.5;"/><!--link *start* to S_normal--><g id="link_*start*_S_normal"><path d="M1152.615,29.94 C1092.615,48.36 870.8786,116.3986 778.9286,144.6286 " fill="none" id="*start*-to-S_normal" style="stroke:#181818;stroke-width:1.5;"/><polygon fill="#181818" points="770.325,147.27,784.9914,149.0436,777.4947,145.0688,781.4695,137.5721,770.325,147.27" style="stroke:#181818;stroke-width:1.5;"/></g><!--link *start* to S_blackjack--><g id="link_*start*_S_blackjack"><path d="M1181.565,29.64 C1241.535,46.8 1463.7623,110.399 1570.3823,140.909 " fill="none" id="*start*-to-S_blackjack" style="stroke:#181818;stroke-width:1.5;"/><polygon fill="#181818" points="1579.035,143.385,1567.7066,133.9025,1571.8244,141.3216,1564.4053,145.4394,1579.035,143.385" style="stroke:#181818;stroke-width:1.5;"/></g><!--link S_normal to S_win--><g id="link_S_normal_S_win"><path d="M770.325,162.405 C887.91,164.28 1241.985,174.93 1336.59,235.5 C1388.07,268.47 1395.81,306.915 1380.09,366 C1368.525,409.44 1345.7137,446.1301 1325.5237,473.8501 " fill="none" id="S_normal-to-S_win" style="stroke:#181818;stroke-width:1.5;"/><polygon fill="#181818" points="1320.225,481.125,1333.023,473.7451,1324.6406,475.0626,1323.3231,466.6802,1320.225,481.125" style="stroke:#181818;stroke-width:1.5;"/><text fill="#000000" font-family="sans-serif" font-size="19.5" lengthAdjust="spacing" textLength="52.5" x="1388.85" y="343.6025">Stand</text></g><!--link S_normal to S_win--><g id="link_S_normal_S_win"><path d="M770.07,174.165 C811.68,187.83 880.155,211.26 937.59,235.5 C1003.23,263.205 1023.015,265.41 1081.59,306 C1158.315,359.175 1228.5094,432.4502 1266.5644,474.7352 " fill="none" id="S_normal-to-S_win-1" style="stroke:#181818;stroke-width:1.5;"/><polygon fill="#181818" points="1272.585,481.425,1268.014,467.3767,1267.5679,475.8502,1259.0943,475.4041,1272.585,481.425" style="stroke:#181818;stroke-width:1.5;"/><text fill="#000000" font-family="sans-serif" font-size="19.5" lengthAdjust="spacing" textLength="28.5" x="1157.535" y="343.6025">Hit</text></g><!--link S_normal to S_win--><g id="link_S_normal_S_win"><path d="M770.265,163.755 C856.83,169.65 1070.52,195.255 1200.09,306 C1254.69,352.665 1278.9461,428.1082 1289.5511,472.3282 " fill="none" id="S_normal-to-S_win-2" style="stroke:#181818;stroke-width:1.5;"/><polygon fill="#181818" points="1291.65,481.08,1294.3362,466.553,1289.9009,473.7868,1282.6671,469.3515,1291.65,481.08" style="stroke:#181818;stroke-width:1.5;"/><text fill="#000000" font-family="sans-serif" font-size="19.5" lengthAdjust="spacing" textLength="67.5" x="1248.195" y="343.6025">Double</text></g><!--link S_normal to S_lose--><g id="link_S_normal_S_lose"><path d="M693.915,183.99 C668.88,198.495 635.445,217.965 606.09,235.5 C563.355,261.015 522.3258,286.1565 489.5808,306.3465 " fill="none" id="S_normal-to-S_lose" style="stroke:#181818;stroke-width:1.5;"/><polygon fill="#181818" points="481.92,311.07,496.5603,309.0919,488.304,307.1337,490.2622,298.8775,481.92,311.07" style="stroke:#181818;stroke-width:1.5;"/><text fill="#000000" font-family="sans-serif" font-size="19.5" lengthAdjust="spacing" textLength="52.5" x="607.59" y="255.8525">Stand</text></g><!--link S_normal to S_lose--><g id="link_S_normal_S_lose"><path d="M694.38,164.175 C612.555,169.74 422.88,187.65 384.09,235.5 C366.36,257.355 379.4636,278.6865 400.8686,299.1765 " fill="none" id="S_normal-to-S_lose-1" style="stroke:#181818;stroke-width:1.5;"/><polygon fill="#181818" points="407.37,305.4,401.7669,291.7305,401.9522,300.2138,393.4689,300.399,407.37,305.4" style="stroke:#181818;stroke-width:1.5;"/><text fill="#000000" font-family="sans-serif" font-size="19.5" lengthAdjust="spacing" textLength="28.5" x="385.59" y="255.8525">Hit</text></g><!--link S_normal to S_lose--><g id="link_S_normal_S_lose"><path d="M694.2,163.155 C640.62,166.8 542.595,181.02 483.09,235.5 C463.185,253.71 455.2151,274.5561 450.4001,296.6661 " fill="none" id="S_normal-to-S_lose-2" style="stroke:#181818;stroke-width:1.5;"/><polygon fill="#181818" points="448.485,305.46,457.2202,293.5459,450.0809,298.1318,445.495,290.9924,448.485,305.46" style="stroke:#181818;stroke-width:1.5;"/><text fill="#000000" font-family="sans-serif" font-size="19.5" lengthAdjust="spacing" textLength="67.5" x="484.59" y="255.8525">Double</text></g><!--link S_normal to S_push--><g id="link_S_normal_S_push"><path d="M734.595,191.07 C740.235,256.575 753.1256,406.1434 758.7956,471.7984 " fill="none" id="S_normal-to-S_push" style="stroke:#181818;stroke-width:1.5;"/><polygon fill="#181818" points="759.57,480.765,764.3862,466.7988,758.9247,473.2928,752.4307,467.8313,759.57,480.765" style="stroke:#181818;stroke-width:1.5;"/><text fill="#000000" font-family="sans-serif" font-size="19.5" lengthAdjust="spacing" textLength="52.5" x="751.08" y="343.6025">Stand</text></g><!--link S_normal to S_push--><g id="link_S_normal_S_push"><path d="M693.975,162.06 C543.9,163.605 9,181.875 154.59,366 C226.515,456.975 593.7334,495.7101 715.2334,506.2101 " fill="none" id="S_normal-to-S_push-1" style="stroke:#181818;stroke-width:1.5;"/><polygon fill="#181818" points="724.2,506.985,711.2667,499.8449,716.7279,506.3393,710.2335,511.8004,724.2,506.985" style="stroke:#181818;stroke-width:1.5;"/><text fill="#000000" font-family="sans-serif" font-size="19.5" lengthAdjust="spacing" textLength="28.5" x="156.09" y="343.6025">Hit</text></g><!--link S_normal to S_push--><g id="link_S_normal_S_push"><path d="M709.935,190.89 C682.545,230.25 641.805,303.09 661.59,366 C675.675,410.79 703.1471,447.1074 727.6121,474.2724 " fill="none" id="S_normal-to-S_push-2" style="stroke:#181818;stroke-width:1.5;"/><polygon fill="#181818" points="733.635,480.96,729.059,466.9133,728.6159,475.387,720.1422,474.9438,733.635,480.96" style="stroke:#181818;stroke-width:1.5;"/><text fill="#000000" font-family="sans-serif" font-size="19.5" lengthAdjust="spacing" textLength="67.5" x="663.09" y="343.6025">Double</text></g><!--link S_normal to S_bust--><g id="link_S_normal_S_bust"><path d="M694.02,160.8 C619.515,160.14 451.35,167.055 333.09,235.5 C304.215,252.21 285.5465,275.1385 270.8015,297.8785 " fill="none" id="S_normal-to-S_bust" style="stroke:#181818;stroke-width:1.5;"/><polygon fill="#181818" points="265.905,305.43,278.284,297.3671,269.9854,299.1371,268.2154,290.8385,265.905,305.43" style="stroke:#181818;stroke-width:1.5;"/><text fill="#000000" font-family="sans-serif" font-size="19.5" lengthAdjust="spacing" textLength="28.5" x="334.59" y="255.8525">Hit</text></g><!--link S_normal to S_bust--><g id="link_S_normal_S_bust"><path d="M694.065,161.37 C586.23,160.47 282.195,164.4 220.59,235.5 C203.715,254.97 210.2074,276.1468 223.1674,297.7018 " fill="none" id="S_normal-to-S_bust-1" style="stroke:#181818;stroke-width:1.5;"/><polygon fill="#181818" points="227.805,305.415,225.9908,290.7535,223.9404,298.9874,215.7065,296.937,227.805,305.415" style="stroke:#181818;stroke-width:1.5;"/><text fill="#000000" font-family="sans-serif" font-size="19.5" lengthAdjust="spacing" textLength="67.5" x="222.09" y="255.8525">Double</text></g><!--link S_normal to S_normal--><g id="link_S_normal_S_normal"><path d="M769.995,154.095 C796.245,152.145 822.09,154.29 822.09,160.5 C822.09,166.71 805.2203,169.5217 778.9703,167.5717 " fill="none" id="S_normal-to-S_normal" style="stroke:#181818;stroke-width:1.5;"/><polygon fill="#181818" points="769.995,166.905,783.0134,173.8886,777.4744,167.4606,783.9024,161.9216,769.995,166.905" style="stroke:#181818;stroke-width:1.5;"/><text fill="#000000" font-family="sans-serif" font-size="19.5" lengthAdjust="spacing" textLength="28.5" x="831.09" y="168.1025">Hit</text></g><!--link S_normal to S_normal--><g id="link_S_normal_S_normal"><path d="M770.025,150.54 C817.755,142.53 874.59,145.86 874.59,160.5 C874.59,175.14 826.6309,179.9595 778.9009,171.9495 " fill="none" id="S_normal-to-S_normal-1" style="stroke:#181818;stroke-width:1.5;"/><polygon fill="#181818" points="770.025,170.46,782.3458,178.6116,777.4216,171.7013,784.3318,166.7771,770.025,170.46" style="stroke:#181818;stroke-width:1.5;"/><text fill="#000000" font-family="sans-serif" font-size="19.5" lengthAdjust="spacing" textLength="250.5" x="883.59" y="168.1025">Insurance if dealer has ace</text></g><!--link S_normal to S_pair--><g id="link_S_normal_S_pair"><path d="M763.47,190.875 C798.075,222.72 846.815,267.5682 881.48,299.4432 " fill="none" id="S_normal-to-S_pair" style="stroke:#181818;stroke-width:1.5;"/><polygon fill="#181818" points="888.105,305.535,882.2287,291.9807,882.5842,300.4585,874.1064,300.814,888.105,305.535" style="stroke:#181818;stroke-width:1.5;"/></g><!--link S_pair to S_normal--><g id="link_S_pair_S_normal"><path d="M906.84,305.415 C896.445,284.13 880.125,255.6 859.59,235.5 C833.655,210.135 805.4299,194.076 778.1599,181.431 " fill="none" id="S_pair-to-S_normal" style="stroke:#181818;stroke-width:1.5;"/><polygon fill="#181818" points="769.995,177.645,779.7183,188.7673,776.7991,180.8,784.7664,177.8808,769.995,177.645" style="stroke:#181818;stroke-width:1.5;"/><text fill="#000000" font-family="sans-serif" font-size="19.5" lengthAdjust="spacing" textLength="42" x="881.445" y="255.8525">Split</text></g><!--link S_pair to S_pair--><g id="link_S_pair_S_pair"><path d="M969.075,320.28 C996.09,317.475 1020.84,322.71 1020.84,336 C1020.84,349.275 1005.0419,355.4545 978.0269,352.6495 " fill="none" id="S_pair-to-S_pair" style="stroke:#181818;stroke-width:1.5;"/><polygon fill="#181818" points="969.075,351.72,981.8832,359.0821,976.5349,352.4946,983.1225,347.1463,969.075,351.72" style="stroke:#181818;stroke-width:1.5;"/><text fill="#000000" font-family="sans-serif" font-size="19.5" lengthAdjust="spacing" textLength="42" x="1029.84" y="343.6025">Split</text></g><!--link S_pair to S_win--><g id="link_S_pair_S_win"><path d="M956.475,366.69 C985.17,388.305 1026.69,417.21 1066.59,436.5 C1131.375,467.82 1203.9276,487.9775 1250.7726,499.3175 " fill="none" id="S_pair-to-S_win" style="stroke:#181818;stroke-width:1.5;"/><polygon fill="#181818" points="1259.52,501.435,1247.8107,492.4272,1252.2305,499.6704,1244.9873,504.0903,1259.52,501.435" style="stroke:#181818;stroke-width:1.5;"/><text fill="#000000" font-family="sans-serif" font-size="19.5" lengthAdjust="spacing" textLength="52.5" x="1068.09" y="431.3525">Stand</text></g><!--link S_pair to S_push--><g id="link_S_pair_S_push"><path d="M893.22,366.375 C864.15,398.22 823.7031,442.5133 794.6031,474.3883 " fill="none" id="S_pair-to-S_push" style="stroke:#181818;stroke-width:1.5;"/><polygon fill="#181818" points="788.535,481.035,802.0682,475.1103,793.5917,475.4961,793.2059,467.0196,788.535,481.035" style="stroke:#181818;stroke-width:1.5;"/><text fill="#000000" font-family="sans-serif" font-size="19.5" lengthAdjust="spacing" textLength="52.5" x="851.76" y="431.3525">Stand</text></g><!--link S_blackjack to S_win--><g id="link_S_blackjack_S_win"><path d="M1658.025,190.68 C1690.455,232.395 1739.385,310.845 1701.09,366 C1616.46,487.89 1427.6806,506.9727 1344.5056,509.5827 " fill="none" id="S_blackjack-to-S_win" style="stroke:#181818;stroke-width:1.5;"/><polygon fill="#181818" points="1335.51,509.865,1349.1915,515.4386,1343.0063,509.6298,1348.8152,503.4445,1335.51,509.865" style="stroke:#181818;stroke-width:1.5;"/><text fill="#000000" font-family="sans-serif" font-size="19.5" lengthAdjust="spacing" textLength="52.5" x="1716.585" y="343.6025">Stand</text></g><!--link S_blackjack to S_push--><g id="link_S_blackjack_S_push"><path d="M1616.85,190.875 C1589.22,235.815 1529.625,321.915 1455.09,366 C1233.24,497.205 918.7049,510.0442 809.0399,510.4192 " fill="none" id="S_blackjack-to-S_push" style="stroke:#181818;stroke-width:1.5;"/><polygon fill="#181818" points="800.04,510.45,813.5604,516.4038,807.54,510.4244,813.5194,504.4039,800.04,510.45" style="stroke:#181818;stroke-width:1.5;"/><text fill="#000000" font-family="sans-serif" font-size="19.5" lengthAdjust="spacing" textLength="52.5" x="1529.655" y="343.6025">Stand</text></g><!--SRC=[TPFFIiD04CRl-nH3BrMXGWKl8eBYGS53eGSF8cMRhdGrJK8sGRmLBr9HUXKfuaKf1Uqr_dsQfEB9Lt2ItMrYJ0wbizzlTcRssuqmgCcWlhnAI9Tt6B2Uuvr1Xmd3vOx7ROiGuL6FGMNBfCR9CVugG0KqMsszrWdhAtM5BDljKNE-qHUUteEXblUvfTHJRcbnpnPCgIQ6Mcxuegja1qCjxw3IeDpL24D2I1MYvzlmPH1TZiEF4In4m-btV_3pVXKzdi_kHj5mChkP8Wc3rzdznTVJ9oQ4RmzXS2tteGxKYC- -YBLaXBsuFCHcicxX4h1HKZ6hgUf1FmmcidhSkAm1ELWwX5fj8_Ki5L9_DLG0xO8rQ7hKwkHHx5aPYuqhO_6z8CC3v8bQ538vI05GOnGGDKHCgidLAIF4lyJuBkLVVfAcOoQ5Com92qd6BCZjoVfHXLrB-2wr35OsqRn_cicFy4l1xyU5BhuCQZ2iistxRREqY1n7vfIuLWpLjCLGNP-29FDs2fzCdlvnWlm2]--></g></svg>