<?xml version="1.0" encoding="us-ascii" standalone="no"?><svg xmlns="http://www.w3.org/2000/svg" xmlns:xlink="http://www.w3.org/1999/xlink" contentStyleType="text/css" height="1351px" preserveAspectRatio="none" style="width:1327px;height:1351px;background:#FFFFFF;" version="1.1" viewBox="0 0 1327 1351" width="1327px" zoomAndPan="magnify"><defs/><g><!--class Suit--><g id="elem_Suit"><rect codeLine="7" fill="#F0F0F0" height="130.4414" id="Suit" rx="2.5" ry="2.5" style="stroke:#181818;stroke-width:0.5;" width="124" x="1179.5" y="144.48"/><ellipse cx="1226.75" cy="160.48" fill="#ADD1B2" rx="11" ry="11" style="stroke:#181818;stroke-width:1.0;"/><path d="M1229.2231,166.6231 Q1228.6421,166.9219 1228.0029,167.0713 Q1227.3638,167.2207 1226.6582,167.2207 Q1224.1514,167.2207 1222.8315,165.5689 Q1221.5117,163.917 1221.5117,160.7959 Q1221.5117,157.6665 1222.8315,156.0147 Q1224.1514,154.3628 1226.6582,154.3628 Q1227.3638,154.3628 1228.0112,154.5122 Q1228.6587,154.6616 1229.2231,154.9605 L1229.2231,157.6831 Q1228.5923,157.1021 1227.9988,156.8323 Q1227.4053,156.5625 1226.7744,156.5625 Q1225.4297,156.5625 1224.7449,157.6292 Q1224.0601,158.6958 1224.0601,160.7959 Q1224.0601,162.8877 1224.7449,163.9544 Q1225.4297,165.021 1226.7744,165.021 Q1227.4053,165.021 1227.9988,164.7512 Q1228.5923,164.4815 1229.2231,163.9004 Z " fill="#000000"/><text fill="#000000" font-family="Arial" font-size="12" lengthAdjust="spacing" textLength="21" x="1247.25" y="164.8364">Suit</text><line style="stroke:#181818;stroke-width:0.5;" x1="1180.5" x2="1302.5" y1="176.48" y2="176.48"/><text fill="#000000" font-family="sans-serif" font-size="14" lengthAdjust="spacing" textLength="92" x="1185.5" y="194.0152">Spades = "&#9824;"</text><text fill="#000000" font-family="sans-serif" font-size="14" lengthAdjust="spacing" textLength="87" x="1185.5" y="210.5034">Hearts = "&#9829;"</text><text fill="#000000" font-family="sans-serif" font-size="14" lengthAdjust="spacing" textLength="112" x="1185.5" y="226.9917">Diamonds = "&#9830;"</text><text fill="#000000" font-family="sans-serif" font-size="14" lengthAdjust="spacing" textLength="82" x="1185.5" y="243.48">Clubs = "&#9827;"</text><line style="stroke:#181818;stroke-width:0.5;" x1="1180.5" x2="1302.5" y1="250.4331" y2="250.4331"/><text fill="#000000" font-family="sans-serif" font-size="14" lengthAdjust="spacing" textLength="60" x="1185.5" y="267.9683">__init__()</text></g><!--class Rank--><g id="elem_Rank"><rect codeLine="14" fill="#F0F0F0" height="64.4883" id="Rank" rx="2.5" ry="2.5" style="stroke:#181818;stroke-width:0.5;" width="72" x="1205.5" y="45.46"/><ellipse cx="1225.45" cy="61.46" fill="#ADD1B2" rx="11" ry="11" style="stroke:#181818;stroke-width:1.0;"/><path d="M1227.9231,67.6031 Q1227.3421,67.9019 1226.7029,68.0513 Q1226.0638,68.2007 1225.3582,68.2007 Q1222.8514,68.2007 1221.5315,66.5489 Q1220.2117,64.897 1220.2117,61.7759 Q1220.2117,58.6465 1221.5315,56.9947 Q1222.8514,55.3428 1225.3582,55.3428 Q1226.0638,55.3428 1226.7112,55.4922 Q1227.3587,55.6416 1227.9231,55.9405 L1227.9231,58.6631 Q1227.2923,58.0821 1226.6988,57.8123 Q1226.1053,57.5425 1225.4744,57.5425 Q1224.1297,57.5425 1223.4449,58.6092 Q1222.7601,59.6758 1222.7601,61.7759 Q1222.7601,63.8677 1223.4449,64.9344 Q1224.1297,66.001 1225.4744,66.001 Q1226.1053,66.001 1226.6988,65.7312 Q1227.2923,65.4615 1227.9231,64.8804 Z " fill="#000000"/><text fill="#000000" font-family="Arial" font-size="12" lengthAdjust="spacing" textLength="29" x="1240.55" y="65.8164">Rank</text><line style="stroke:#181818;stroke-width:0.5;" x1="1206.5" x2="1276.5" y1="77.46" y2="77.46"/><line style="stroke:#181818;stroke-width:0.5;" x1="1206.5" x2="1276.5" y1="85.46" y2="85.46"/><text fill="#000000" font-family="sans-serif" font-size="14" lengthAdjust="spacing" textLength="60" x="1211.5" y="102.9952">__init__()</text></g><!--class Card--><g id="elem_Card"><rect codeLine="17" fill="#F0F0F0" height="163.418" id="Card" rx="2.5" ry="2.5" style="stroke:#181818;stroke-width:0.5;" width="220" x="883" y="7"/><ellipse cx="975.25" cy="23" fill="#ADD1B2" rx="11" ry="11" style="stroke:#181818;stroke-width:1.0;"/><path d="M977.7231,29.1431 Q977.1421,29.4419 976.5029,29.5913 Q975.8638,29.7407 975.1582,29.7407 Q972.6514,29.7407 971.3315,28.0889 Q970.0117,26.437 970.0117,23.3159 Q970.0117,20.1865 971.3315,18.5347 Q972.6514,16.8828 975.1582,16.8828 Q975.8638,16.8828 976.5112,17.0322 Q977.1587,17.1816 977.7231,17.4805 L977.7231,20.2031 Q977.0923,19.6221 976.4988,19.3523 Q975.9053,19.0825 975.2744,19.0825 Q973.9297,19.0825 973.2449,20.1492 Q972.5601,21.2158 972.5601,23.3159 Q972.5601,25.4077 973.2449,26.4744 Q973.9297,27.541 975.2744,27.541 Q975.9053,27.541 976.4988,27.2712 Q977.0923,27.0015 977.7231,26.4204 Z " fill="#000000"/><text fill="#000000" font-family="Arial" font-size="12" lengthAdjust="spacing" textLength="27" x="995.75" y="27.3564">Card</text><line style="stroke:#181818;stroke-width:0.5;" x1="884" x2="1102" y1="39" y2="39"/><text fill="#000000" font-family="sans-serif" font-size="14" lengthAdjust="spacing" textLength="63" x="889" y="56.5352">suit : Suit</text><text fill="#000000" font-family="sans-serif" font-size="14" lengthAdjust="spacing" textLength="77" x="889" y="73.0234">rank : Rank</text><text fill="#000000" font-family="sans-serif" font-size="14" lengthAdjust="spacing" textLength="66" x="889" y="89.5117">point : int</text><line style="stroke:#181818;stroke-width:0.5;" x1="884" x2="1102" y1="96.4648" y2="96.4648"/><text fill="#000000" font-family="sans-serif" font-size="14" lengthAdjust="spacing" textLength="75" x="889" y="114">get_point()</text><text fill="#000000" font-family="sans-serif" font-size="14" lengthAdjust="spacing" textLength="55" x="889" y="130.4883">__eq__()</text><text fill="#000000" font-family="sans-serif" font-size="14" lengthAdjust="spacing" textLength="56" x="889" y="146.9766">__str__()</text><text fill="#000000" font-family="sans-serif" font-size="14" lengthAdjust="spacing" textLength="208" x="889" y="163.4648">__init__(suit: Suit , rank: Rank )</text></g><!--class Enum--><g id="elem_Enum"><rect fill="#F0F0F0" height="48" id="Enum" rx="2.5" ry="2.5" style="stroke:#181818;stroke-width:0.5;" width="64" x="961" y="205.7"/><ellipse cx="976" cy="221.7" fill="#ADD1B2" rx="11" ry="11" style="stroke:#181818;stroke-width:1.0;"/><path d="M978.4731,227.8431 Q977.8921,228.1419 977.2529,228.2913 Q976.6138,228.4407 975.9082,228.4407 Q973.4014,228.4407 972.0815,226.7889 Q970.7617,225.137 970.7617,222.0159 Q970.7617,218.8865 972.0815,217.2347 Q973.4014,215.5828 975.9082,215.5828 Q976.6138,215.5828 977.2612,215.7322 Q977.9087,215.8816 978.4731,216.1805 L978.4731,218.9031 Q977.8423,218.3221 977.2488,218.0523 Q976.6553,217.7825 976.0244,217.7825 Q974.6797,217.7825 973.9949,218.8492 Q973.3101,219.9158 973.3101,222.0159 Q973.3101,224.1077 973.9949,225.1744 Q974.6797,226.241 976.0244,226.241 Q976.6553,226.241 977.2488,225.9712 Q977.8423,225.7015 978.4731,225.1204 Z " fill="#000000"/><text fill="#000000" font-family="Arial" font-size="12" lengthAdjust="spacing" textLength="32" x="990" y="226.0564">Enum</text><line style="stroke:#181818;stroke-width:0.5;" x1="962" x2="1024" y1="237.7" y2="237.7"/><line style="stroke:#181818;stroke-width:0.5;" x1="962" x2="1024" y1="245.7" y2="245.7"/></g><!--class Deck--><g id="elem_Deck"><rect codeLine="31" fill="#F0F0F0" height="163.418" id="Deck" rx="2.5" ry="2.5" style="stroke:#181818;stroke-width:0.5;" width="124" x="554" y="7"/><ellipse cx="597.8" cy="23" fill="#ADD1B2" rx="11" ry="11" style="stroke:#181818;stroke-width:1.0;"/><path d="M600.2731,29.1431 Q599.6921,29.4419 599.0529,29.5913 Q598.4138,29.7407 597.7082,29.7407 Q595.2014,29.7407 593.8815,28.0889 Q592.5617,26.437 592.5617,23.3159 Q592.5617,20.1865 593.8815,18.5347 Q595.2014,16.8828 597.7082,16.8828 Q598.4138,16.8828 599.0612,17.0322 Q599.7087,17.1816 600.2731,17.4805 L600.2731,20.2031 Q599.6423,19.6221 599.0488,19.3523 Q598.4553,19.0825 597.8244,19.0825 Q596.4797,19.0825 595.7949,20.1492 Q595.1101,21.2158 595.1101,23.3159 Q595.1101,25.4077 595.7949,26.4744 Q596.4797,27.541 597.8244,27.541 Q598.4553,27.541 599.0488,27.2712 Q599.6423,27.0015 600.2731,26.4204 Z " fill="#000000"/><text fill="#000000" font-family="Arial" font-size="12" lengthAdjust="spacing" textLength="28" x="618.2" y="27.3564">Deck</text><line style="stroke:#181818;stroke-width:0.5;" x1="555" x2="677" y1="39" y2="39"/><text fill="#000000" font-family="sans-serif" font-size="14" lengthAdjust="spacing" textLength="112" x="560" y="56.5352">cards : list[Card]</text><line style="stroke:#181818;stroke-width:0.5;" x1="555" x2="677" y1="63.4883" y2="63.4883"/><text fill="#000000" font-family="sans-serif" font-size="14" lengthAdjust="spacing" textLength="57" x="560" y="81.0234">shuffle()</text><text fill="#000000" font-family="sans-serif" font-size="14" lengthAdjust="spacing" textLength="73" x="560" y="97.5117">burn_out()</text><text fill="#000000" font-family="sans-serif" font-size="14" lengthAdjust="spacing" textLength="76" x="560" y="114">deal_card()</text><text fill="#000000" font-family="sans-serif" font-size="14" lengthAdjust="spacing" textLength="56" x="560" y="130.4883">__str__()</text><text fill="#000000" font-family="sans-serif" font-size="14" lengthAdjust="spacing" textLength="59" x="560" y="146.9766">__len__()</text><text fill="#000000" font-family="sans-serif" font-size="14" lengthAdjust="spacing" textLength="60" x="560" y="163.4648">__init__()</text></g><!--class Hand--><g id="elem_Hand"><rect codeLine="42" fill="#F0F0F0" height="245.8594" id="Hand" rx="2.5" ry="2.5" style="stroke:#181818;stroke-width:0.5;" width="148" x="919" y="482.77"/><ellipse cx="973.75" cy="498.77" fill="#ADD1B2" rx="11" ry="11" style="stroke:#181818;stroke-width:1.0;"/><path d="M976.2231,504.9131 Q975.6421,505.2119 975.0029,505.3613 Q974.3638,505.5107 973.6582,505.5107 Q971.1514,505.5107 969.8315,503.8589 Q968.5117,502.207 968.5117,499.0859 Q968.5117,495.9565 969.8315,494.3047 Q971.1514,492.6528 973.6582,492.6528 Q974.3638,492.6528 975.0112,492.8022 Q975.6587,492.9516 976.2231,493.2505 L976.2231,495.9731 Q975.5923,495.3921 974.9988,495.1223 Q974.4053,494.8525 973.7744,494.8525 Q972.4297,494.8525 971.7449,495.9192 Q971.0601,496.9858 971.0601,499.0859 Q971.0601,501.1777 971.7449,502.2444 Q972.4297,503.311 973.7744,503.311 Q974.4053,503.311 974.9988,503.0412 Q975.5923,502.7715 976.2231,502.1904 Z " fill="#000000"/><text fill="#000000" font-family="Arial" font-size="12" lengthAdjust="spacing" textLength="30" x="994.25" y="503.1264">Hand</text><line style="stroke:#181818;stroke-width:0.5;" x1="920" x2="1066" y1="514.77" y2="514.77"/><text fill="#000000" font-family="sans-serif" font-size="14" lengthAdjust="spacing" textLength="108" x="925" y="532.3052">cards: list[Card]</text><text fill="#000000" font-family="sans-serif" font-size="14" lengthAdjust="spacing" textLength="83" x="925" y="548.7934">is_soft: bool</text><line style="stroke:#181818;stroke-width:0.5;" x1="920" x2="1066" y1="555.7466" y2="555.7466"/><text fill="#000000" font-family="sans-serif" font-size="14" lengthAdjust="spacing" textLength="73" x="925" y="573.2817">add_card()</text><text fill="#000000" font-family="sans-serif" font-size="14" lengthAdjust="spacing" textLength="68" x="925" y="589.77">__evalue()</text><text fill="#000000" font-family="sans-serif" font-size="14" lengthAdjust="spacing" textLength="136" x="925" y="606.2583">__potential_evalue()</text><text fill="#000000" font-family="sans-serif" font-size="14" lengthAdjust="spacing" textLength="53" x="925" y="622.7466">points()</text><text fill="#000000" font-family="sans-serif" font-size="14" lengthAdjust="spacing" textLength="125" x="925" y="639.2348">potiential_points()</text><text fill="#000000" font-family="sans-serif" font-size="14" lengthAdjust="spacing" textLength="91" x="925" y="655.7231">is_blackjack()</text><text fill="#000000" font-family="sans-serif" font-size="14" lengthAdjust="spacing" textLength="58" x="925" y="672.2114">is_bust()</text><text fill="#000000" font-family="sans-serif" font-size="14" lengthAdjust="spacing" textLength="56" x="925" y="688.6997">__str__()</text><text fill="#000000" font-family="sans-serif" font-size="14" lengthAdjust="spacing" textLength="55" x="925" y="705.188">__eq__()</text><text fill="#000000" font-family="sans-serif" font-size="14" lengthAdjust="spacing" textLength="60" x="925" y="721.6763">__init__()</text></g><!--class PlayerHand--><g id="elem_PlayerHand"><rect codeLine="56" fill="#F0F0F0" height="245.8594" id="PlayerHand" rx="2.5" ry="2.5" style="stroke:#181818;stroke-width:0.5;" width="157" x="1163" y="658.77"/><ellipse cx="1205" cy="674.77" fill="#ADD1B2" rx="11" ry="11" style="stroke:#181818;stroke-width:1.0;"/><path d="M1207.4731,680.9131 Q1206.8921,681.2119 1206.2529,681.3613 Q1205.6138,681.5107 1204.9082,681.5107 Q1202.4014,681.5107 1201.0815,679.8589 Q1199.7617,678.207 1199.7617,675.0859 Q1199.7617,671.9565 1201.0815,670.3047 Q1202.4014,668.6528 1204.9082,668.6528 Q1205.6138,668.6528 1206.2612,668.8022 Q1206.9087,668.9516 1207.4731,669.2505 L1207.4731,671.9731 Q1206.8423,671.3921 1206.2488,671.1223 Q1205.6553,670.8525 1205.0244,670.8525 Q1203.6797,670.8525 1202.9949,671.9192 Q1202.3101,672.9858 1202.3101,675.0859 Q1202.3101,677.1777 1202.9949,678.2444 Q1203.6797,679.311 1205.0244,679.311 Q1205.6553,679.311 1206.2488,679.0412 Q1206.8423,678.7715 1207.4731,678.1904 Z " fill="#000000"/><text fill="#000000" font-family="Arial" font-size="12" lengthAdjust="spacing" textLength="65" x="1225" y="679.1264">PlayerHand</text><line style="stroke:#181818;stroke-width:0.5;" x1="1164" x2="1319" y1="690.77" y2="690.77"/><text fill="#000000" font-family="sans-serif" font-size="14" lengthAdjust="spacing" textLength="62" x="1169" y="708.3052">__bet: int</text><text fill="#000000" font-family="sans-serif" font-size="14" lengthAdjust="spacing" textLength="110" x="1169" y="724.7934">__doubled: bool</text><text fill="#000000" font-family="sans-serif" font-size="14" lengthAdjust="spacing" textLength="109" x="1169" y="741.2817">__is_initial: bool</text><line style="stroke:#181818;stroke-width:0.5;" x1="1164" x2="1319" y1="748.2348" y2="748.2348"/><text fill="#000000" font-family="sans-serif" font-size="14" lengthAdjust="spacing" textLength="32" x="1169" y="765.77">bet()</text><text fill="#000000" font-family="sans-serif" font-size="14" lengthAdjust="spacing" textLength="66" x="1169" y="782.2583">is_initial()</text><text fill="#000000" font-family="sans-serif" font-size="14" lengthAdjust="spacing" textLength="145" x="1169" y="798.7466">is_initial(value: bool )</text><text fill="#000000" font-family="sans-serif" font-size="14" lengthAdjust="spacing" textLength="67" x="1169" y="815.2348">doubled()</text><text fill="#000000" font-family="sans-serif" font-size="14" lengthAdjust="spacing" textLength="65" x="1169" y="831.7231">add_bet()</text><text fill="#000000" font-family="sans-serif" font-size="14" lengthAdjust="spacing" textLength="131" x="1169" y="848.2114">mark_as_doubled()</text><text fill="#000000" font-family="sans-serif" font-size="14" lengthAdjust="spacing" textLength="68" x="1169" y="864.6997">has_pair()</text><text fill="#000000" font-family="sans-serif" font-size="14" lengthAdjust="spacing" textLength="39" x="1169" y="881.188">split()</text><text fill="#000000" font-family="sans-serif" font-size="14" lengthAdjust="spacing" textLength="60" x="1169" y="897.6763">__init__()</text></g><!--class Player--><g id="elem_Player"><rect codeLine="73" fill="#F0F0F0" height="509.6719" id="Player" rx="2.5" ry="2.5" style="stroke:#181818;stroke-width:0.5;" width="178" x="904" y="834.87"/><ellipse cx="971.25" cy="850.87" fill="#ADD1B2" rx="11" ry="11" style="stroke:#181818;stroke-width:1.0;"/><path d="M973.7231,857.0131 Q973.1421,857.3119 972.5029,857.4613 Q971.8638,857.6107 971.1582,857.6107 Q968.6514,857.6107 967.3315,855.9589 Q966.0117,854.307 966.0117,851.1859 Q966.0117,848.0565 967.3315,846.4047 Q968.6514,844.7528 971.1582,844.7528 Q971.8638,844.7528 972.5112,844.9022 Q973.1587,845.0516 973.7231,845.3505 L973.7231,848.0731 Q973.0923,847.4921 972.4988,847.2223 Q971.9053,846.9525 971.2744,846.9525 Q969.9297,846.9525 969.2449,848.0192 Q968.5601,849.0858 968.5601,851.1859 Q968.5601,853.2777 969.2449,854.3444 Q969.9297,855.411 971.2744,855.411 Q971.9053,855.411 972.4988,855.1412 Q973.0923,854.8715 973.7231,854.2904 Z " fill="#000000"/><text fill="#000000" font-family="Arial" font-size="12" lengthAdjust="spacing" textLength="35" x="991.75" y="855.2264">Player</text><line style="stroke:#181818;stroke-width:0.5;" x1="905" x2="1081" y1="866.87" y2="866.87"/><text fill="#000000" font-family="sans-serif" font-size="14" lengthAdjust="spacing" textLength="57" x="910" y="884.4052">__id : int</text><text fill="#000000" font-family="sans-serif" font-size="14" lengthAdjust="spacing" textLength="78" x="910" y="900.8934">__bank : int</text><text fill="#000000" font-family="sans-serif" font-size="14" lengthAdjust="spacing" textLength="138" x="910" y="917.3817">__hand : PlayerHand</text><text fill="#000000" font-family="sans-serif" font-size="14" lengthAdjust="spacing" textLength="120" x="910" y="933.87">__insuranced : int</text><text fill="#000000" font-family="sans-serif" font-size="14" lengthAdjust="spacing" textLength="107" x="910" y="950.3583">__main_bet : int</text><line style="stroke:#181818;stroke-width:0.5;" x1="905" x2="1081" y1="957.3114" y2="957.3114"/><text fill="#000000" font-family="sans-serif" font-size="14" lengthAdjust="spacing" textLength="74" x="910" y="974.8466">init_hand()</text><text fill="#000000" font-family="sans-serif" font-size="14" lengthAdjust="spacing" textLength="133" x="910" y="991.3348">get_bank_amount()</text><text fill="#000000" font-family="sans-serif" font-size="14" lengthAdjust="spacing" textLength="166" x="910" y="1007.8231">get_insurance_amount()</text><text fill="#000000" font-family="sans-serif" font-size="14" lengthAdjust="spacing" textLength="68" x="910" y="1024.3114">has_pair()</text><text fill="#000000" font-family="sans-serif" font-size="14" lengthAdjust="spacing" textLength="48" x="910" y="1040.7997">stand()</text><text fill="#000000" font-family="sans-serif" font-size="14" lengthAdjust="spacing" textLength="28" x="910" y="1057.288">hit()</text><text fill="#000000" font-family="sans-serif" font-size="14" lengthAdjust="spacing" textLength="58" x="910" y="1073.7763">double()</text><text fill="#000000" font-family="sans-serif" font-size="14" lengthAdjust="spacing" textLength="89" x="910" y="1090.2645">can_double()</text><text fill="#000000" font-family="sans-serif" font-size="14" lengthAdjust="spacing" textLength="39" x="910" y="1106.7528">split()</text><text fill="#000000" font-family="sans-serif" font-size="14" lengthAdjust="spacing" textLength="77" x="910" y="1123.2411">insurance()</text><text fill="#000000" font-family="sans-serif" font-size="14" lengthAdjust="spacing" textLength="157" x="910" y="1139.7294">__move_to_nex_hand()</text><text fill="#000000" font-family="sans-serif" font-size="14" lengthAdjust="spacing" textLength="123" x="910" y="1156.2177">done_with_hand()</text><text fill="#000000" font-family="sans-serif" font-size="14" lengthAdjust="spacing" textLength="86" x="910" y="1172.7059">is_all_done()</text><text fill="#000000" font-family="sans-serif" font-size="14" lengthAdjust="spacing" textLength="74" x="910" y="1189.1942">get_hand()</text><text fill="#000000" font-family="sans-serif" font-size="14" lengthAdjust="spacing" textLength="61" x="910" y="1205.6825">get_bet()</text><text fill="#000000" font-family="sans-serif" font-size="14" lengthAdjust="spacing" textLength="104" x="910" y="1222.1708">get_all_hands()</text><text fill="#000000" font-family="sans-serif" font-size="14" lengthAdjust="spacing" textLength="140" x="910" y="1238.6591">get_insurance_rate()</text><text fill="#000000" font-family="sans-serif" font-size="14" lengthAdjust="spacing" textLength="91" x="910" y="1255.1473">get_all_bets()</text><text fill="#000000" font-family="sans-serif" font-size="14" lengthAdjust="spacing" textLength="142" x="910" y="1271.6356">get_bank_and_bets()</text><text fill="#000000" font-family="sans-serif" font-size="14" lengthAdjust="spacing" textLength="64" x="910" y="1288.1239">pay_out()</text><text fill="#000000" font-family="sans-serif" font-size="14" lengthAdjust="spacing" textLength="58" x="910" y="1304.6122">__reset()</text><text fill="#000000" font-family="sans-serif" font-size="14" lengthAdjust="spacing" textLength="56" x="910" y="1321.1005">__str__()</text><text fill="#000000" font-family="sans-serif" font-size="14" lengthAdjust="spacing" textLength="60" x="910" y="1337.5888">__init__()</text></g><!--class Dealer--><g id="elem_Dealer"><rect codeLine="106" fill="#F0F0F0" height="295.3242" id="Dealer" rx="2.5" ry="2.5" style="stroke:#181818;stroke-width:0.5;" width="147" x="542.5" y="426.04"/><ellipse cx="593.25" cy="442.04" fill="#ADD1B2" rx="11" ry="11" style="stroke:#181818;stroke-width:1.0;"/><path d="M595.7231,448.1831 Q595.1421,448.4819 594.5029,448.6313 Q593.8638,448.7807 593.1582,448.7807 Q590.6514,448.7807 589.3315,447.1289 Q588.0117,445.477 588.0117,442.3559 Q588.0117,439.2265 589.3315,437.5747 Q590.6514,435.9228 593.1582,435.9228 Q593.8638,435.9228 594.5112,436.0722 Q595.1587,436.2216 595.7231,436.5205 L595.7231,439.2431 Q595.0923,438.6621 594.4988,438.3923 Q593.9053,438.1225 593.2744,438.1225 Q591.9297,438.1225 591.2449,439.1892 Q590.5601,440.2558 590.5601,442.3559 Q590.5601,444.4477 591.2449,445.5144 Q591.9297,446.581 593.2744,446.581 Q593.9053,446.581 594.4988,446.3112 Q595.0923,446.0415 595.7231,445.4604 Z " fill="#000000"/><text fill="#000000" font-family="Arial" font-size="12" lengthAdjust="spacing" textLength="37" x="613.75" y="446.3964">Dealer</text><line style="stroke:#181818;stroke-width:0.5;" x1="543.5" x2="688.5" y1="458.04" y2="458.04"/><text fill="#000000" font-family="sans-serif" font-size="14" lengthAdjust="spacing" textLength="127" x="548.5" y="475.5752">__hiden_card:Card</text><text fill="#000000" font-family="sans-serif" font-size="14" lengthAdjust="spacing" textLength="93" x="548.5" y="492.0634">__hand: Hand</text><line style="stroke:#181818;stroke-width:0.5;" x1="543.5" x2="688.5" y1="499.0166" y2="499.0166"/><text fill="#000000" font-family="sans-serif" font-size="14" lengthAdjust="spacing" textLength="74" x="548.5" y="516.5517">init_hand()</text><text fill="#000000" font-family="sans-serif" font-size="14" lengthAdjust="spacing" textLength="35" x="548.5" y="533.04">hits()</text><text fill="#000000" font-family="sans-serif" font-size="14" lengthAdjust="spacing" textLength="91" x="548.5" y="549.5283">is_blackjack()</text><text fill="#000000" font-family="sans-serif" font-size="14" lengthAdjust="spacing" textLength="93" x="548.5" y="566.0166">reveal_hand()</text><text fill="#000000" font-family="sans-serif" font-size="14" lengthAdjust="spacing" textLength="110" x="548.5" y="582.5048">get_face_point()</text><text fill="#000000" font-family="sans-serif" font-size="14" lengthAdjust="spacing" textLength="104" x="548.5" y="598.9931">get_face_card()</text><text fill="#000000" font-family="sans-serif" font-size="14" lengthAdjust="spacing" textLength="74" x="548.5" y="615.4814">get_hand()</text><text fill="#000000" font-family="sans-serif" font-size="14" lengthAdjust="spacing" textLength="58" x="548.5" y="631.9697">is_bust()</text><text fill="#000000" font-family="sans-serif" font-size="14" lengthAdjust="spacing" textLength="44" x="548.5" y="648.458">reset()</text><text fill="#000000" font-family="sans-serif" font-size="14" lengthAdjust="spacing" textLength="115" x="548.5" y="664.9463">get_hiden_card()</text><text fill="#000000" font-family="sans-serif" font-size="14" lengthAdjust="spacing" textLength="135" x="548.5" y="681.4345">__add_hiden_back()</text><text fill="#000000" font-family="sans-serif" font-size="14" lengthAdjust="spacing" textLength="56" x="548.5" y="697.9228">__str__()</text><text fill="#000000" font-family="sans-serif" font-size="14" lengthAdjust="spacing" textLength="60" x="548.5" y="714.4111">__init__()</text></g><!--class Action--><g id="elem_Action"><rect codeLine="127" fill="#F0F0F0" height="146.9297" id="Action" rx="2.5" ry="2.5" style="stroke:#181818;stroke-width:0.5;" width="79" x="1202" y="310.24"/><ellipse cx="1222.85" cy="326.24" fill="#ADD1B2" rx="11" ry="11" style="stroke:#181818;stroke-width:1.0;"/><path d="M1225.3231,332.3831 Q1224.7421,332.6819 1224.1029,332.8313 Q1223.4638,332.9807 1222.7582,332.9807 Q1220.2514,332.9807 1218.9315,331.3289 Q1217.6117,329.677 1217.6117,326.5559 Q1217.6117,323.4265 1218.9315,321.7747 Q1220.2514,320.1228 1222.7582,320.1228 Q1223.4638,320.1228 1224.1112,320.2722 Q1224.7587,320.4216 1225.3231,320.7205 L1225.3231,323.4431 Q1224.6923,322.8621 1224.0988,322.5923 Q1223.5053,322.3225 1222.8744,322.3225 Q1221.5297,322.3225 1220.8449,323.3892 Q1220.1601,324.4558 1220.1601,326.5559 Q1220.1601,328.6477 1220.8449,329.7144 Q1221.5297,330.781 1222.8744,330.781 Q1223.5053,330.781 1224.0988,330.5112 Q1224.6923,330.2415 1225.3231,329.6604 Z " fill="#000000"/><text fill="#000000" font-family="Arial" font-size="12" lengthAdjust="spacing" textLength="34" x="1238.15" y="330.5964">Action</text><line style="stroke:#181818;stroke-width:0.5;" x1="1203" x2="1280" y1="342.24" y2="342.24"/><text fill="#000000" font-family="sans-serif" font-size="14" lengthAdjust="spacing" textLength="39" x="1208" y="359.7752">Stand</text><text fill="#000000" font-family="sans-serif" font-size="14" lengthAdjust="spacing" textLength="19" x="1208" y="376.2634">Hit</text><text fill="#000000" font-family="sans-serif" font-size="14" lengthAdjust="spacing" textLength="30" x="1208" y="392.7517">Split</text><text fill="#000000" font-family="sans-serif" font-size="14" lengthAdjust="spacing" textLength="49" x="1208" y="409.24">Double</text><text fill="#000000" font-family="sans-serif" font-size="14" lengthAdjust="spacing" textLength="67" x="1208" y="425.7283">Insurance</text><line style="stroke:#181818;stroke-width:0.5;" x1="1203" x2="1280" y1="432.6814" y2="432.6814"/><text fill="#000000" font-family="sans-serif" font-size="14" lengthAdjust="spacing" textLength="60" x="1208" y="450.2166">__init__()</text></g><!--class Interaction--><g id="elem_Interaction"><rect codeLine="135" fill="#F0F0F0" height="113.9531" id="Interaction" rx="2.5" ry="2.5" style="stroke:#181818;stroke-width:0.5;" width="116" x="558" y="205.73"/><ellipse cx="585.15" cy="221.73" fill="#ADD1B2" rx="11" ry="11" style="stroke:#181818;stroke-width:1.0;"/><path d="M587.6231,227.8731 Q587.0421,228.1719 586.4029,228.3213 Q585.7638,228.4707 585.0582,228.4707 Q582.5514,228.4707 581.2315,226.8189 Q579.9117,225.167 579.9117,222.0459 Q579.9117,218.9165 581.2315,217.2647 Q582.5514,215.6128 585.0582,215.6128 Q585.7638,215.6128 586.4112,215.7622 Q587.0587,215.9116 587.6231,216.2105 L587.6231,218.9331 Q586.9923,218.3521 586.3988,218.0823 Q585.8053,217.8125 585.1744,217.8125 Q583.8297,217.8125 583.1449,218.8792 Q582.4601,219.9458 582.4601,222.0459 Q582.4601,224.1377 583.1449,225.2044 Q583.8297,226.271 585.1744,226.271 Q585.8053,226.271 586.3988,226.0012 Q586.9923,225.7315 587.6231,225.1504 Z " fill="#000000"/><text fill="#000000" font-family="Arial" font-size="12" lengthAdjust="spacing" textLength="57" x="601.85" y="226.0864">Interaction</text><line style="stroke:#181818;stroke-width:0.5;" x1="559" x2="673" y1="237.73" y2="237.73"/><line style="stroke:#181818;stroke-width:0.5;" x1="559" x2="673" y1="245.73" y2="245.73"/><text fill="#000000" font-family="sans-serif" font-size="14" lengthAdjust="spacing" textLength="104" x="564" y="263.2652">cash_in_chips()</text><text fill="#000000" font-family="sans-serif" font-size="14" lengthAdjust="spacing" textLength="90" x="564" y="279.7534">get_init_bet()</text><text fill="#000000" font-family="sans-serif" font-size="14" lengthAdjust="spacing" textLength="81" x="564" y="296.2417">get_action()</text><text fill="#000000" font-family="sans-serif" font-size="14" lengthAdjust="spacing" textLength="60" x="564" y="312.73">__init__()</text></g><!--class State--><g id="elem_State"><rect codeLine="141" fill="#F0F0F0" height="113.9531" id="State" rx="2.5" ry="2.5" style="stroke:#181818;stroke-width:0.5;" width="414" x="409" y="756.73"/><ellipse cx="597.75" cy="772.73" fill="#ADD1B2" rx="11" ry="11" style="stroke:#181818;stroke-width:1.0;"/><path d="M600.2231,778.8731 Q599.6421,779.1719 599.0029,779.3213 Q598.3638,779.4707 597.6582,779.4707 Q595.1514,779.4707 593.8315,777.8189 Q592.5117,776.167 592.5117,773.0459 Q592.5117,769.9165 593.8315,768.2647 Q595.1514,766.6128 597.6582,766.6128 Q598.3638,766.6128 599.0112,766.7622 Q599.6587,766.9116 600.2231,767.2105 L600.2231,769.9331 Q599.5923,769.3521 598.9988,769.0823 Q598.4053,768.8125 597.7744,768.8125 Q596.4297,768.8125 595.7449,769.8792 Q595.0601,770.9458 595.0601,773.0459 Q595.0601,775.1377 595.7449,776.2044 Q596.4297,777.271 597.7744,777.271 Q598.4053,777.271 598.9988,777.0012 Q599.5923,776.7315 600.2231,776.1504 Z " fill="#000000"/><text fill="#000000" font-family="Arial" font-size="12" lengthAdjust="spacing" textLength="28" x="618.25" y="777.0864">State</text><line style="stroke:#181818;stroke-width:0.5;" x1="410" x2="822" y1="788.73" y2="788.73"/><text fill="#000000" font-family="sans-serif" font-size="14" lengthAdjust="spacing" textLength="147" x="415" y="806.2652">__dealer_hand : Hand</text><text fill="#000000" font-family="sans-serif" font-size="14" lengthAdjust="spacing" textLength="187" x="415" y="822.7534">__player_hand : PlayerHand</text><line style="stroke:#181818;stroke-width:0.5;" x1="410" x2="822" y1="829.7066" y2="829.7066"/><text fill="#000000" font-family="sans-serif" font-size="14" lengthAdjust="spacing" textLength="56" x="415" y="847.2417">__str__()</text><text fill="#000000" font-family="sans-serif" font-size="14" lengthAdjust="spacing" textLength="402" x="415" y="863.73">__init__(__dealer_hand: Hand , __player_hand: PlayerHand )</text></g><!--class BlackJackGame--><g id="elem_BlackJackGame"><rect codeLine="147" fill="#F0F0F0" height="328.3008" id="BlackJackGame" rx="2.5" ry="2.5" style="stroke:#181818;stroke-width:0.5;" width="342" x="7" y="208.55"/><ellipse cx="129.75" cy="224.55" fill="#ADD1B2" rx="11" ry="11" style="stroke:#181818;stroke-width:1.0;"/><path d="M132.2231,230.6931 Q131.6421,230.9919 131.0029,231.1413 Q130.3638,231.2907 129.6582,231.2907 Q127.1514,231.2907 125.8315,229.6389 Q124.5117,227.987 124.5117,224.8659 Q124.5117,221.7365 125.8315,220.0847 Q127.1514,218.4328 129.6582,218.4328 Q130.3638,218.4328 131.0112,218.5822 Q131.6587,218.7316 132.2231,219.0305 L132.2231,221.7531 Q131.5923,221.1721 130.9988,220.9023 Q130.4053,220.6325 129.7744,220.6325 Q128.4297,220.6325 127.7449,221.6992 Q127.0601,222.7658 127.0601,224.8659 Q127.0601,226.9577 127.7449,228.0244 Q128.4297,229.091 129.7744,229.091 Q130.4053,229.091 130.9988,228.8212 Q131.5923,228.5515 132.2231,227.9704 Z " fill="#000000"/><text fill="#000000" font-family="Arial" font-size="12" lengthAdjust="spacing" textLength="88" x="150.25" y="228.9064">BlackJackGame</text><line style="stroke:#181818;stroke-width:0.5;" x1="8" x2="348" y1="240.55" y2="240.55"/><text fill="#000000" font-family="sans-serif" font-size="14" lengthAdjust="spacing" textLength="77" x="13" y="258.0852">deck : Deck</text><text fill="#000000" font-family="sans-serif" font-size="14" lengthAdjust="spacing" textLength="99" x="13" y="274.5734">dealer : Dealer</text><text fill="#000000" font-family="sans-serif" font-size="14" lengthAdjust="spacing" textLength="95" x="13" y="291.0617">player : Player</text><text fill="#000000" font-family="sans-serif" font-size="14" lengthAdjust="spacing" textLength="309" x="13" y="307.55">state_action_history : list[tuple[State, Action]]</text><text fill="#000000" font-family="sans-serif" font-size="14" lengthAdjust="spacing" textLength="131" x="13" y="324.0383">__can_insure : bool</text><line style="stroke:#181818;stroke-width:0.5;" x1="8" x2="348" y1="330.9914" y2="330.9914"/><text fill="#000000" font-family="sans-serif" font-size="14" lengthAdjust="spacing" textLength="95" x="13" y="348.5266">__init_player()</text><text fill="#000000" font-family="sans-serif" font-size="14" lengthAdjust="spacing" textLength="95" x="13" y="365.0148">__init_hands()</text><text fill="#000000" font-family="sans-serif" font-size="14" lengthAdjust="spacing" textLength="79" x="13" y="381.5031">_get_state()</text><text fill="#000000" font-family="sans-serif" font-size="14" lengthAdjust="spacing" textLength="127" x="13" y="397.9914">_print_final_state()</text><text fill="#000000" font-family="sans-serif" font-size="14" lengthAdjust="spacing" textLength="159" x="13" y="414.4797">_get_possible_actions()</text><text fill="#000000" font-family="sans-serif" font-size="14" lengthAdjust="spacing" textLength="168" x="13" y="430.968">_get_insurance_reward()</text><text fill="#000000" font-family="sans-serif" font-size="14" lengthAdjust="spacing" textLength="136" x="13" y="447.4562">_get_hand_reward()</text><text fill="#000000" font-family="sans-serif" font-size="14" lengthAdjust="spacing" textLength="39" x="13" y="463.9445">step()</text><text fill="#000000" font-family="sans-serif" font-size="14" lengthAdjust="spacing" textLength="52" x="13" y="480.4328">round()</text><text fill="#000000" font-family="sans-serif" font-size="14" lengthAdjust="spacing" textLength="38" x="13" y="496.9211">play()</text><text fill="#000000" font-family="sans-serif" font-size="14" lengthAdjust="spacing" textLength="44" x="13" y="513.4094">reset()</text><text fill="#000000" font-family="sans-serif" font-size="14" lengthAdjust="spacing" textLength="330" x="13" y="529.8977">__init__(__can_insure: bool , __can_insure: bool )</text></g><!--reverse link Enum to Suit--><g id="link_Enum_Suit"><path codeLine="26" d="M1043.411,225.6936 C1082.091,222.5536 1130.65,218.62 1179.48,214.66 " fill="none" id="Enum-backto-Suit" style="stroke:#181818;stroke-width:1.0;"/><polygon fill="none" points="1025.47,227.15,1043.8965,231.6739,1042.9255,219.7132,1025.47,227.15" style="stroke:#181818;stroke-width:1.0;"/></g><!--reverse link Enum to Rank--><g id="link_Enum_Rank"><path codeLine="27" d="M1042.5098,216.3543 C1065.2598,209.5243 1078.92,203.5 1103,187.7 C1134.79,166.84 1133.4,150.58 1163,126.7 C1176.13,116.11 1191.68,105.89 1205.39,97.55 " fill="none" id="Enum-backto-Rank" style="stroke:#181818;stroke-width:1.0;"/><polygon fill="none" points="1025.27,221.53,1044.2351,222.1009,1040.7846,210.6077,1025.27,221.53" style="stroke:#181818;stroke-width:1.0;"/></g><!--link Card to Suit--><g id="link_Card_Suit"><path codeLine="28" d="M1103.19,142.3 C1129.21,155.07 1150.6834,165.6171 1173.6734,176.8971 " fill="none" id="Card-to-Suit" style="stroke:#181818;stroke-width:1.0;"/><polygon fill="#181818" points="1179.06,179.54,1172.7421,171.9846,1174.5712,177.3376,1169.2182,179.1667,1179.06,179.54" style="stroke:#181818;stroke-width:1.0;"/></g><!--link Card to Rank--><g id="link_Card_Rank"><path codeLine="29" d="M1103.19,83.83 C1139.9,82.19 1172.286,80.7481 1199.116,79.5481 " fill="none" id="Card-to-Rank" style="stroke:#181818;stroke-width:1.0;"/><polygon fill="#181818" points="1205.11,79.28,1195.9403,75.6861,1200.115,79.5034,1196.2977,83.6781,1205.11,79.28" style="stroke:#181818;stroke-width:1.0;"/></g><!--link Deck to Card--><g id="link_Deck_Card"><path codeLine="40" d="M678.08,88.7 C733.39,88.7 810.17,88.7 876.84,88.7 " fill="none" id="Deck-to-Card" style="stroke:#181818;stroke-width:1.0;"/><polygon fill="#181818" points="882.84,88.7,873.84,84.7,877.84,88.7,873.84,92.7,882.84,88.7" style="stroke:#181818;stroke-width:1.0;"/></g><!--reverse link Hand to PlayerHand--><g id="link_Hand_PlayerHand"><path codeLine="71" d="M1081.9402,668.4881 C1112.0302,689.9681 1132.24,704.41 1162.78,726.21 " fill="none" id="Hand-backto-PlayerHand" style="stroke:#181818;stroke-width:1.0;"/><polygon fill="none" points="1067.29,658.03,1078.4541,673.3715,1085.4262,663.6048,1067.29,658.03" style="stroke:#181818;stroke-width:1.0;"/></g><!--link Player to PlayerHand--><g id="link_Player_PlayerHand"><path codeLine="104" d="M1082.3,979.38 C1108.54,946.58 1133.3517,915.5951 1158.8817,883.6851 " fill="none" id="Player-to-PlayerHand" style="stroke:#181818;stroke-width:1.0;"/><polygon fill="#181818" points="1162.63,879,1153.8841,883.5287,1159.5064,882.9042,1160.1309,888.5265,1162.63,879" style="stroke:#181818;stroke-width:1.0;"/></g><!--link Dealer to Hand--><g id="link_Dealer_Hand"><path codeLine="124" d="M689.75,579.91 C755.78,585.55 846.6718,593.2995 912.8318,598.9495 " fill="none" id="Dealer-to-Hand" style="stroke:#181818;stroke-width:1.0;"/><polygon fill="#181818" points="918.81,599.46,910.183,594.7087,913.8281,599.0346,909.5023,602.6797,918.81,599.46" style="stroke:#181818;stroke-width:1.0;"/></g><!--link Dealer to Card--><g id="link_Dealer_Card"><path codeLine="125" d="M689.96,502.68 C732.86,458.02 785.79,397.5 823,336.7 C860.26,275.81 842.21,246.29 883,187.7 C887.02,181.93 887.5588,180.8441 892.2288,175.3141 " fill="none" id="Dealer-to-Card" style="stroke:#181818;stroke-width:1.0;"/><polygon fill="#181818" points="896.1,170.73,887.2372,175.0253,892.874,174.5501,893.3493,180.1869,896.1,170.73" style="stroke:#181818;stroke-width:1.0;"/></g><!--reverse link Enum to Action--><g id="link_Enum_Action"><path codeLine="166" d="M1040.7353,258.8978 C1085.6453,286.9578 1152.79,328.91 1201.51,359.34 " fill="none" id="Enum-backto-Action" style="stroke:#181818;stroke-width:1.0;"/><polygon fill="none" points="1025.47,249.36,1037.556,263.9863,1043.9146,253.8094,1025.47,249.36" style="stroke:#181818;stroke-width:1.0;"/></g><!--link State to Hand--><g id="link_State_Hand"><path codeLine="167" d="M788.09,756.28 C800.11,750.77 811.86,744.91 823,738.7 C856.44,720.09 885.549,698.8628 914.009,675.5428 " fill="none" id="State-to-Hand" style="stroke:#181818;stroke-width:1.0;"/><polygon fill="#181818" points="918.65,671.74,909.1533,674.3502,914.7825,674.909,914.2237,680.5382,918.65,671.74" style="stroke:#181818;stroke-width:1.0;"/></g><!--link State to PlayerHand--><g id="link_State_PlayerHand"><path codeLine="168" d="M823.32,803.12 C939.63,797.15 1072.1379,790.3477 1156.6579,786.0077 " fill="none" id="State-to-PlayerHand" style="stroke:#181818;stroke-width:1.0;"/><polygon fill="#181818" points="1162.65,785.7,1153.4567,782.1668,1157.6566,785.9564,1153.867,790.1563,1162.65,785.7" style="stroke:#181818;stroke-width:1.0;"/></g><!--link BlackJackGame to Action--><g id="link_BlackJackGame_Action"><path codeLine="169" d="M349.25,374.47 C602.94,377.1 1058.9703,381.828 1195.5103,383.238 " fill="none" id="BlackJackGame-to-Action" style="stroke:#181818;stroke-width:1.0;"/><polygon fill="#181818" points="1201.51,383.3,1192.5518,379.2073,1196.5103,383.2484,1192.4692,387.2069,1201.51,383.3" style="stroke:#181818;stroke-width:1.0;"/></g><!--link BlackJackGame to Deck--><g id="link_BlackJackGame_Deck"><path codeLine="170" d="M349.24,229.75 C368.95,215.25 389.11,201.27 409,188.7 C455.38,159.41 506.1274,135.0547 548.1174,116.5947 " fill="none" id="BlackJackGame-to-Deck" style="stroke:#181818;stroke-width:1.0;"/><polygon fill="#181818" points="553.61,114.18,543.7612,114.1403,549.0328,116.1923,546.9809,121.4638,553.61,114.18" style="stroke:#181818;stroke-width:1.0;"/></g><!--link BlackJackGame to Dealer--><g id="link_BlackJackGame_Dealer"><path codeLine="171" d="M349.44,451.28 C416.32,482.11 484.0211,513.3181 536.5811,537.5481 " fill="none" id="BlackJackGame-to-Dealer" style="stroke:#181818;stroke-width:1.0;"/><polygon fill="#181818" points="542.03,540.06,535.5313,532.6595,537.4893,537.9667,532.1821,539.9247,542.03,540.06" style="stroke:#181818;stroke-width:1.0;"/></g><!--link BlackJackGame to Player--><g id="link_BlackJackGame_Player"><path codeLine="172" d="M215.73,537.33 C248.75,649.97 308.05,795.13 409,887.7 C550.22,1017.21 772.7726,1063.567 897.6426,1080.217 " fill="none" id="BlackJackGame-to-Player" style="stroke:#181818;stroke-width:1.0;"/><polygon fill="#181818" points="903.59,1081.01,895.1976,1075.8556,898.6339,1080.3492,894.1403,1083.7854,903.59,1081.01" style="stroke:#181818;stroke-width:1.0;"/></g><!--link BlackJackGame to Interaction--><g id="link_BlackJackGame_Interaction"><path codeLine="173" d="M349.44,329.7 C423.24,311.08 498.8721,291.9971 551.8521,278.6371 " fill="none" id="BlackJackGame-to-Interaction" style="stroke:#181818;stroke-width:1.0;"/><polygon fill="#181818" points="557.67,277.17,547.9651,275.4921,552.8218,278.3926,549.9213,283.2492,557.67,277.17" style="stroke:#181818;stroke-width:1.0;"/></g><!--SRC=[VLR9RXmt4BttLn3AmJ4W0RAFWzY0bZXI3a4G7Gs1O7VNQ2Xno3PPBKTPFYGt0uRzOVuI5xTkSheL2JCOlgeYQtbLf88jCZJCohiTibvQw50QtRW7gGTXnPvrIZXtXcXbEo9STqRVoB-0dHwgl3CQW-JLwpNHRs8FxEZCIg6E3kNdedkuisRK_OLHnh8Vtftw_wO9KdOpIcH_Dup-RWRHWsDlsD6t_puT1UWAXCK4VOdGfHHxe_i4VetWXHhRX7oE2ETII-JynvVDl-ceFuH-I4UjI2-4xPFq3f0FHceaSTI63q4tBXpQQUMy-viOHG2iFsGJpmf0s8WG-gwFzgR9yZYO9IllqizwtBEV_Zav2V9YwJMQuEh9oTied5P1bgAvX2x7wdRZTgiWEToELdCpvj1w48ftjCDgT9mhqCLgIffVUYj7WIdfyBrtufOS3-TwPpoGdRaIEgTMz7rz73mADSAq70o2Hk9HBGX9TDC2PLAgSEbuguXjz_GfeD5XwN7bSD9nPakbQ8rHgqceghyWpkzAF84jOcm1v-EzEdcw149uyL2MQc76La5EZS_KlDDUs0Sk7AzrTeGCGjfCna79cRDaNB8kMLPXpkxKy1pY2sRQUneRaNq-o2P46fPpv4sLYvI7iCsEfCabtrOjSPHJ0uzJStbKQZTI1tHGYmx3mtcltHHeZ6kgiEOLKAPaEcLAqTuy0aV3DVnPEjeR3VoZn5q9Kgw4KjpB2iyFmuCoBA_l5Tngg5OW72YJkLiaI_SbFeYdedqvj-00dsbUsLTpfusZQGQyRmGKPSprJpxMzdiXjNTbRPWjkH9tRH8Z_4XOqkMIfi-pTA4I_qzdMtZqe-iW_rj1YIr7zmGMG-UWRlMCAFCP56LF8x0QMRup8zpE_YnoNuvANcop2PDnBi0cTjLX-c9gcfGXdxwWLgpB2NiMBlPyZs8kvPN4TBEgzEioD4VuUPsh_DnWkzO8LfGxTyBjI8ztEpdKf9OBxWUxvwScEOamtSPrxleGPAPdc3VvUWWKMXANrSTKMwGTZclpodfswzpJx5Vw_EAVDDLZ8HhN4PNTpNtO3kUkveCb8lAjr4JKIX0V6Cv9gaNALBLBCIJWOq6zpDmQTWX3Pgz_P-L9GVwkaBhtD_GcF12c5m0nQfCPbqq3bfeuJL_CpXAT7Hhxb6z_70S5xqD9ZnCNRszJdln83l40MxjaIeLq6nwp5R1-5SKpcaYYgJdcPJ5gwefwOJ9U2a9Erk2GcAKWPMSfA3hdEm00]--></g></svg>